<?xml version="1.0" encoding="UTF-8"?>
<svg version="1.1" xmlns="http://www.w3.org/2000/svg" width="1320" height="1191">
<path d="M0 0 C435.6 0 871.2 0 1320 0 C1320 393.03 1320 786.06 1320 1191 C884.4 1191 448.8 1191 0 1191 C0 797.97 0 404.94 0 0 Z " fill="#FEFDFD" transform="translate(0,0)"/>
<path d="M0 0 C0.70236534 0.00060047 1.40473068 0.00120094 2.12837982 0.00181961 C18.94389243 0.02263564 35.60825779 0.46048067 52.3125 2.5 C53.19074432 2.60449463 54.06898865 2.70898926 54.97384644 2.81665039 C69.71704655 4.58480486 83.95243477 7.74652595 98.3125 11.5 C99.8601001 11.9024292 99.8601001 11.9024292 101.43896484 12.31298828 C176.24525017 31.97655644 252.69334567 73.8408028 301.2265625 135.85546875 C303.14659678 138.28966952 305.14574043 140.63369437 307.18212891 142.97070312 C318.89660635 156.47943905 328.84224252 171.36320448 338.3125 186.5 C338.69325684 187.10312012 339.07401367 187.70624023 339.46630859 188.32763672 C354.01116934 211.46223453 366.4917382 236.6150332 375.3125 262.5 C375.61365723 263.37897949 375.91481445 264.25795898 376.22509766 265.16357422 C389.0908079 303.09534748 389.0908079 303.09534748 391.3125 322.5 C392.48683594 322.74492187 393.66117188 322.98984375 394.87109375 323.2421875 C418.36260478 328.53625684 438.39301918 342.37253646 451.4375 362.75 C460.69907474 378.31732775 463.93419516 393.92277737 463.8125 411.875 C463.81007294 412.60122559 463.80764587 413.32745117 463.80514526 414.07568359 C463.73434598 424.99711205 463.09961118 434.51096942 458.3125 444.5 C458.00135254 445.18368652 457.69020508 445.86737305 457.36962891 446.57177734 C447.1893095 468.7254564 430.18409334 485.48331416 407.3125 494.5 C406.6834375 494.77457031 406.054375 495.04914063 405.40625 495.33203125 C401.34392973 497.02188989 397.3981389 497.89343805 393.05078125 498.5859375 C391.97481689 498.75915527 390.89885254 498.93237305 389.7902832 499.11083984 C388.97261475 499.2392627 388.15494629 499.36768555 387.3125 499.5 C387.11205078 500.22775635 386.91160156 500.9555127 386.70507812 501.70532227 C380.08003873 525.63470918 372.53075999 548.8329589 362.3125 571.5 C361.97750488 572.24975098 361.64250977 572.99950195 361.29736328 573.77197266 C350.0261482 598.87833775 335.74274272 623.08792214 318.71679688 644.71484375 C317.31392383 646.49819001 315.92888113 648.29420159 314.546875 650.09375 C299.93644719 669.02894781 283.93427931 687.82872879 265.73828125 703.41015625 C263.84083337 705.04483357 261.96937667 706.69882783 260.10546875 708.37109375 C250.65085346 716.7964332 240.73157457 724.30960639 230.3125 731.5 C229.47380371 732.07927246 228.63510742 732.65854492 227.77099609 733.25537109 C215.6126113 741.60499531 203.21707677 749.35955837 190.3125 756.5 C189.56887207 756.91701172 188.82524414 757.33402344 188.05908203 757.76367188 C157.9197252 774.58869058 124.08984992 787.31485738 90.3125 794.5 C89.26255859 794.72381348 88.21261719 794.94762695 87.13085938 795.17822266 C63.66512724 800.09201701 39.98381889 803.64247333 15.96875 803.66796875 C14.83836304 803.67129715 13.70797607 803.67462555 12.54333496 803.67805481 C10.16691489 803.68307954 7.79048788 803.68546453 5.4140625 803.68530273 C1.84883472 803.68747783 -1.71607717 803.70565093 -5.28125 803.72460938 C-24.75231476 803.77399806 -43.6646955 802.2235532 -62.875 799.125 C-63.90225189 798.96059921 -63.90225189 798.96059921 -64.95025635 798.7928772 C-84.82585989 795.60223047 -103.52858685 790.70619591 -122.6875 784.5 C-123.58259277 784.21253906 -124.47768555 783.92507813 -125.39990234 783.62890625 C-174.1410755 767.82606709 -221.49234057 740.60389271 -259.2109375 705.765625 C-261.23842701 703.91082387 -263.295802 702.11518508 -265.37890625 700.32421875 C-270.20915176 696.10846526 -274.72900581 691.60514301 -279.25 687.0625 C-280.06146484 686.25490234 -280.87292969 685.44730469 -281.70898438 684.61523438 C-286.57672502 679.7396362 -291.21805607 674.74171424 -295.6875 669.5 C-296.57643782 668.47883131 -297.46573381 667.45797425 -298.35546875 666.4375 C-316.55131484 645.2231182 -332.18742335 621.95618282 -345.6875 597.5 C-346.26008545 596.480271 -346.26008545 596.480271 -346.84423828 595.43994141 C-356.8231015 577.62825349 -364.85628721 558.72319939 -371.6875 539.5 C-372.17594899 538.16234566 -372.66555144 536.825112 -373.15625 535.48828125 C-376.6875 525.79957933 -376.6875 525.79957933 -376.6875 523.5 C-364.1475 523.5 -351.6075 523.5 -338.6875 523.5 C-337.0375 527.46 -335.3875 531.42 -333.6875 535.5 C-321.57707617 563.83310995 -308.64424492 591.98420963 -289.6875 616.5 C-288.20824344 618.49993351 -286.7290811 620.49993672 -285.25 622.5 C-280.88168629 628.29957008 -276.3425977 633.92902129 -271.6875 639.5 C-270.86378906 640.510625 -270.04007812 641.52125 -269.19140625 642.5625 C-262.83981675 650.25527558 -255.987449 657.38141635 -248.9375 664.4375 C-248.05030273 665.32550293 -247.16310547 666.21350586 -246.24902344 667.12841797 C-241.21871961 672.11634747 -236.09937802 676.92876797 -230.6875 681.5 C-229.77363525 682.27404175 -229.77363525 682.27404175 -228.84130859 683.0637207 C-186.48826601 718.60178394 -135.52269513 744.66949895 -81.6875 757.5 C-80.76163086 757.72139648 -79.83576172 757.94279297 -78.88183594 758.17089844 C-27.55866693 770.11182023 28.77693643 771.04124 80.00341797 758.08056641 C82.12295613 757.54765652 84.24661578 757.05304704 86.37890625 756.57421875 C136.25678276 744.96162596 181.97887002 721.72343543 222.3125 690.5 C223.25867188 689.76910156 224.20484375 689.03820312 225.1796875 688.28515625 C230.23806655 684.30621323 235.06321288 680.11528154 239.81640625 675.77734375 C241.45926741 674.2784579 243.11272155 672.79108741 244.77734375 671.31640625 C253.87120121 663.2569212 262.46223723 654.78060726 270.3125 645.5 C271.0859375 644.61570312 271.859375 643.73140625 272.65625 642.8203125 C303.61308881 607.21295461 348.3125 545.53685466 348.3125 496.5 C347.4875 496.26667969 346.6625 496.03335937 345.8125 495.79296875 C323.18661277 488.64662267 306.81044367 472.20514115 295.7890625 451.66015625 C285.64742872 430.731512 282.53203222 405.50228941 289.56640625 383.1796875 C293.89759854 370.91358525 300.41539535 359.02636942 309.3125 349.5 C310.02019531 348.72527344 310.72789062 347.95054687 311.45703125 347.15234375 C321.57560665 336.53758602 335.76694825 326.63610459 350.3125 323.5 C351.6325 323.5 352.9525 323.5 354.3125 323.5 C348.46037032 296.41688821 339.22884281 269.49841481 327.3125 244.5 C326.79526367 243.40534424 326.79526367 243.40534424 326.26757812 242.28857422 C324.05300501 237.63602807 321.72430467 233.05311599 319.3125 228.5 C318.94721191 227.80664551 318.58192383 227.11329102 318.20556641 226.39892578 C298.60126026 189.45330527 272.22397716 154.72021727 240.3125 127.5 C239.42433594 126.72269531 238.53617188 125.94539063 237.62109375 125.14453125 C203.10417443 95.15544292 163.48763389 72.50212646 120.3125 57.5 C119.07765869 57.0656665 119.07765869 57.0656665 117.81787109 56.62255859 C99.95479768 50.3662482 81.99690389 45.55917989 63.3125 42.5 C62.01940918 42.28279297 60.72631836 42.06558594 59.39404297 41.84179688 C35.25933522 37.84351542 11.74656088 36.66926438 -12.6875 37.5 C-13.40311096 37.52276001 -14.11872192 37.54552002 -14.85601807 37.56896973 C-87.55880199 39.93996445 -160.60371387 66.40014974 -217.6875 111.5 C-218.491875 112.12519531 -219.29625 112.75039062 -220.125 113.39453125 C-222.67231937 115.39891236 -225.18231403 117.4432275 -227.6875 119.5 C-228.64140625 120.26699219 -229.5953125 121.03398437 -230.578125 121.82421875 C-238.8390106 128.5967372 -246.43570662 136.0332198 -254 143.5625 C-254.51169739 144.069021 -255.02339478 144.57554199 -255.55059814 145.09741211 C-262.40081418 151.89296706 -268.69874628 158.91809134 -274.6875 166.5 C-275.77171912 167.83603176 -276.85747413 169.17081975 -277.9453125 170.50390625 C-283.46307839 177.33347106 -288.79414531 184.20327199 -293.6875 191.5 C-294.46301797 192.62796441 -295.23910133 193.75554021 -296.015625 194.8828125 C-302.12129204 203.81122382 -307.55700365 212.9825575 -312.6875 222.5 C-313.14914551 223.345625 -313.61079102 224.19125 -314.08642578 225.0625 C-326.54546212 247.94996762 -337.34608635 272.13434542 -343.6875 297.5 C-356.2275 297.5 -368.7675 297.5 -381.6875 297.5 C-375.07202564 269.38423399 -365.2696489 241.8767966 -351.6484375 216.31591797 C-350.6289244 214.38930759 -349.64129631 212.44834663 -348.65625 210.50390625 C-339.26469048 192.13286804 -328.05844167 174.98917374 -315.6875 158.5 C-315.2430957 157.90251953 -314.79869141 157.30503906 -314.34082031 156.68945312 C-297.44854933 134.01927239 -277.629097 110.9803318 -255.3125 93.5625 C-252.81465329 91.59990616 -250.41556839 89.56023925 -248.01611328 87.48046875 C-240.89614923 81.32861644 -233.45360417 75.80567177 -225.6875 70.5 C-224.98431641 70.01885742 -224.28113281 69.53771484 -223.55664062 69.04199219 C-178.5091984 38.3457728 -129.31100579 17.3177502 -75.76550293 6.91009521 C-73.66750752 6.49605447 -71.57454397 6.06160451 -69.48144531 5.62353516 C-46.37581874 0.85741087 -23.51001064 -0.0436986 0 0 Z " fill="#E8313D" transform="translate(646.6875,98.5)"/>
<path d="M0 0 C108.04794521 0 108.04794521 0 128.78125 19.65625 C140.93622217 32.49600933 143.53490246 46.72282558 143.2734375 63.8046875 C142.64535286 80.78784738 134.71659482 93.20342842 123 105 C120.3960233 107.41365282 117.74149953 109.74405215 115 112 C116.48294789 116.22130139 118.66950084 119.71461268 121.1875 123.375 C122.08320923 124.69842224 122.97765402 126.02270081 123.87109375 127.34765625 C124.36464355 128.07871582 124.85819336 128.80977539 125.36669922 129.56298828 C128.53306775 134.28745624 131.64025944 139.05064983 134.75 143.8125 C135.37543701 144.76624512 136.00087402 145.71999023 136.64526367 146.70263672 C148 164.09424003 148 164.09424003 148 167 C141.57793146 167.25431993 135.15716637 167.42897096 128.73120117 167.54931641 C126.54743946 167.5994955 124.36401193 167.66765942 122.18139648 167.75439453 C104.03476211 168.45727169 104.03476211 168.45727169 99.1027832 164.92504883 C97.28563322 162.33708917 96.11413511 159.94992912 95 157 C94.33613281 156.00871094 93.67226563 155.01742187 92.98828125 153.99609375 C92.15876953 152.72958984 92.15876953 152.72958984 91.3125 151.4375 C89.8790919 149.28877951 88.44230817 147.14272433 87 145 C86.53899902 144.31357422 86.07799805 143.62714844 85.60302734 142.91992188 C77.03389234 128.95433281 77.03389234 128.95433281 64 120 C57.07 119.67 50.14 119.34 43 119 C43 134.84 43 150.68 43 167 C28.81 167 14.62 167 0 167 C0 111.89 0 56.78 0 0 Z " fill="#E8313D" transform="translate(776,426)"/>
<path d="M0 0 C13.53 0 27.06 0 41 0 C41 21.45 41 42.9 41 65 C62.12 65 83.24 65 105 65 C105 43.55 105 22.1 105 0 C118.53 0 132.06 0 146 0 C146 55.11 146 110.22 146 167 C132.47 167 118.94 167 105 167 C105 145.22 105 123.44 105 101 C83.88 101 62.76 101 41 101 C41 122.78 41 144.56 41 167 C27.47 167 13.94 167 0 167 C0 111.89 0 56.78 0 0 Z " fill="#E8313D" transform="translate(154,426)"/>
<path d="M0 0 C41.25 0 82.5 0 125 0 C125 11.88 125 23.76 125 36 C97.28 36 69.56 36 41 36 C41 45.57 41 55.14 41 65 C66.41 65 91.82 65 118 65 C118 76.88 118 88.76 118 101 C92.59 101 67.18 101 41 101 C41 110.57 41 120.14 41 130 C70.37 130 99.74 130 130 130 C130 142.21 130 154.42 130 167 C87.1 167 44.2 167 0 167 C0 111.89 0 56.78 0 0 Z " fill="#E8313D" transform="translate(629,426)"/>
<path d="M0 0 C42.9 0 85.8 0 130 0 C130 11.88 130 23.76 130 36 C100.63 36 71.26 36 41 36 C41 45.57 41 55.14 41 65 C64.43 65 87.86 65 112 65 C112 76.88 112 88.76 112 101 C88.57 101 65.14 101 41 101 C41 110.9 41 120.8 41 131 C70.37 131 99.74 131 130 131 C130 142.88 130 154.76 130 167 C87.1 167 44.2 167 0 167 C0 111.89 0 56.78 0 0 Z " fill="#E8303D" transform="translate(324,426)"/>
<path d="M0 0 C46.53 0 93.06 0 141 0 C141 11.88 141 23.76 141 36 C123.84 36 106.68 36 89 36 C89 79.23 89 122.46 89 167 C75.14 167 61.28 167 47 167 C47 123.77 47 80.54 47 36 C31.49 36 15.98 36 0 36 C0 24.12 0 12.24 0 0 Z " fill="#E8313D" transform="translate(471,426)"/>
<path d="M0 0 C0.99580078 0.81597656 0.99580078 0.81597656 2.01171875 1.6484375 C2.76839844 2.23367188 3.52507812 2.81890625 4.3046875 3.421875 C14.06324801 11.43141377 21.04961712 23.08731956 23.01171875 35.6484375 C24.21562592 53.31232132 20.12970438 66.1645075 9.0546875 80.11328125 C1.95382869 88.05592447 -11.10924219 95.7367654 -21.9309082 96.84790039 C-39.77290549 97.69908201 -52.8523149 94.33934714 -66.80078125 82.8359375 C-76.36192327 73.9394738 -82.2394572 60.12641042 -83.26171875 47.1875 C-83.65032769 32.21110938 -79.84216934 19.35203155 -69.98828125 7.6484375 C-51.39822905 -10.88441454 -21.9484993 -16.47182614 0 0 Z " fill="#FDFCFC" transform="translate(1051.98828125,465.3515625)"/>
<path d="M0 0 C4.41375 -0.020625 8.8275 -0.04125 13.375 -0.0625 C14.74575684 -0.071604 16.11651367 -0.08070801 17.52880859 -0.09008789 C29.84094947 -0.11774159 39.39091667 0.13624457 50 7 C54.97981796 12.45408634 56.46920396 19.63045912 56.25390625 26.921875 C55.52181128 32.91379074 53.55078805 38.91595944 49 43 C41.22670531 46.94685359 33.86485291 48.16270597 25.1953125 48.09765625 C24.55263428 48.09664917 23.90995605 48.09564209 23.24780273 48.09460449 C20.8735167 48.08941801 18.49925634 48.07545716 16.125 48.0625 C10.80375 48.041875 5.4825 48.02125 0 48 C0 32.16 0 16.32 0 0 Z " fill="#FDF9FA" transform="translate(819,462)"/>
<path d="M0 0 C42.9 0 85.8 0 130 0 C129.67 0.99 129.34 1.98 129 3 C90.72 3 52.44 3 13 3 C13 2.67 13 2.34 13 2 C8.71 1.67 4.42 1.34 0 1 C0 0.67 0 0.34 0 0 Z " fill="#FDF4F5" transform="translate(324,593)"/>
<path d="M0 0 C41.91 0 83.82 0 127 0 C127 0.33 127 0.66 127 1 C125.06833984 1.09087891 125.06833984 1.09087891 123.09765625 1.18359375 C121.41925841 1.26798247 119.74087364 1.3526313 118.0625 1.4375 C116.78729492 1.49647461 116.78729492 1.49647461 115.48632812 1.55664062 C114.67744141 1.59853516 113.86855469 1.64042969 113.03515625 1.68359375 C111.91185913 1.73858032 111.91185913 1.73858032 110.76586914 1.79467773 C108.97538674 1.81771063 108.97538674 1.81771063 108 3 C105.10856849 3.09523905 102.24107936 3.12553027 99.34936523 3.11352539 C97.9885231 3.11374443 97.9885231 3.11374443 96.60018921 3.1139679 C93.58630015 3.11326841 90.57247207 3.10547434 87.55859375 3.09765625 C85.47494033 3.0957922 83.39128646 3.09436824 81.30763245 3.09336853 C75.81176554 3.08954234 70.31592487 3.0797112 64.82006836 3.06866455 C59.21663773 3.0584526 53.61320287 3.05387137 48.00976562 3.04882812 C37.00649886 3.03808902 26.00325161 3.02101139 15 3 C15 2.67 15 2.34 15 2 C10.05 1.67 5.1 1.34 0 1 C0 0.67 0 0.34 0 0 Z " fill="#FCF3F4" transform="translate(629,593)"/>
<path d="M0 0 C13.86 0 27.72 0 42 0 C41.67 0.99 41.34 1.98 41 3 C30.44 3 19.88 3 9 3 C9 2.67 9 2.34 9 2 C6.03 1.67 3.06 1.34 0 1 C0 0.67 0 0.34 0 0 Z " fill="#FCF4F5" transform="translate(259,593)"/>
<path d="M0 0 C13.2 0 26.4 0 40 0 C40 0.99 40 1.98 40 3 C29.77 3 19.54 3 9 3 C9 2.67 9 2.34 9 2 C6.03 1.67 3.06 1.34 0 1 C0 0.67 0 0.34 0 0 Z " fill="#FCF4F5" transform="translate(154,593)"/>
<path d="M0 0 C5.19609458 -0.07421905 10.39187983 -0.12863446 15.58837891 -0.16479492 C17.35568619 -0.17987102 19.12295614 -0.20033522 20.89013672 -0.22631836 C23.43205995 -0.26275402 25.97348806 -0.27973794 28.515625 -0.29296875 C29.30430969 -0.30845261 30.09299438 -0.32393646 30.90557861 -0.33988953 C35.72535533 -0.34136445 36.95490095 -0.03382429 41 3 C27.8 3 14.6 3 1 3 C0.67 2.01 0.34 1.02 0 0 Z " fill="#FCF3F4" transform="translate(518,593)"/>
<path d="M0 0 C14.19 0 28.38 0 43 0 C43 0.99 43 1.98 43 3 C34.09 3 25.18 3 16 3 C16 2.67 16 2.34 16 2 C10.72 1.67 5.44 1.34 0 1 C0 0.67 0 0.34 0 0 Z " fill="#FCF3F4" transform="translate(776,593)"/>
<path d="M0 0 C0.66 0.33 1.32 0.66 2 1 C-3.10822678 6.84740172 -8.37545312 12.52082055 -13.8125 18.0625 C-14.36317139 18.63444092 -14.91384277 19.20638184 -15.48120117 19.7956543 C-18.24718016 22.5852561 -20.13434948 24.28086958 -24 25 C-19.18132753 19.19108254 -13.98743592 13.86934448 -8.625 8.5625 C-7.79355469 7.73556641 -6.96210938 6.90863281 -6.10546875 6.05664062 C-4.0725896 4.03544469 -2.03740037 2.01663665 0 0 Z " fill="#E83B46" transform="translate(383,199)"/>
<path d="M0 0 C0.495 1.485 0.495 1.485 1 3 C0.67 3.66 0.34 4.32 0 5 C-3.63 5 -7.26 5 -11 5 C-11 4.67 -11 4.34 -11 4 C-22.55 3.67 -34.1 3.34 -46 3 C-46 2.67 -46 2.34 -46 2 C-30.82 2 -15.64 2 0 2 C0 1.34 0 0.68 0 0 Z " fill="#FBF0F3" transform="translate(924,591)"/>
<path d="M0 0 C0.66 0.66 1.32 1.32 2 2 C-4.28571429 7.57142857 -4.28571429 7.57142857 -8 8 C-5.33333333 5.33333333 -2.66666667 2.66666667 0 0 Z " fill="#E8454E" transform="translate(895,767)"/>
<path d="M0 0 C0.66 0.99 1.32 1.98 2 3 C0.68 5.64 -0.64 8.28 -2 11 C-2.66 10.01 -3.32 9.02 -4 8 C-2.68 5.36 -1.36 2.72 0 0 Z " fill="#E83D48" transform="translate(946,461)"/>
<path d="M0 0 C0.99 0.33 1.98 0.66 3 1 C1.35 2.65 -0.3 4.3 -2 6 C-2.99 5.67 -3.98 5.34 -5 5 C-3.35 3.35 -1.7 1.7 0 0 Z " fill="#EA3B44" transform="translate(906,756)"/>
<path d="M0 0 C0 0.99 0 1.98 0 3 C-1.98 3.99 -3.96 4.98 -6 6 C-6.66 5.34 -7.32 4.68 -8 4 C-2.25 0 -2.25 0 0 0 Z " fill="#EA454D" transform="translate(977,432)"/>
<path d="M0 0 C3.36591866 1.44253657 5.51047079 3.33264727 8 6 C7.67 6.66 7.34 7.32 7 8 C5.8274869 7.04882866 4.66212985 6.08882991 3.5 5.125 C2.8503125 4.59132813 2.200625 4.05765625 1.53125 3.5078125 C1.0259375 3.01023437 0.520625 2.51265625 0 2 C0 1.34 0 0.68 0 0 Z " fill="#E83C47" transform="translate(381,797)"/>
<path d="M0 0 C0.99 0.33 1.98 0.66 3 1 C1.35 2.65 -0.3 4.3 -2 6 C-2.33 5.01 -2.66 4.02 -3 3 C-2.01 2.01 -1.02 1.02 0 0 Z " fill="#FBE4E5" transform="translate(883,774)"/>
<path d="M0 0 C3.35595828 0.59927826 5.37801226 1.84622436 8 4 C5.69 3.67 3.38 3.34 1 3 C0.67 2.01 0.34 1.02 0 0 Z " fill="#E73D46" transform="translate(1065,432)"/>
</svg>
